<svg version="1.2" xmlns="http://www.w3.org/2000/svg" viewBox="0 0 40 40" width="40" height="40">
	<title>call-svg</title>
	<defs>
		<clipPath clipPathUnits="userSpaceOnUse" id="cp1">
			<path d="m0 0h40v40h-40z"/>
		</clipPath>
	</defs>
	<style>
		.s0 { fill: #1f4b3f } 
	</style>
	<g id="Clip-Path" clip-path="url(#cp1)">
		<g id="Layer">
			<path id="Layer" fill-rule="evenodd" class="s0" d="m39.1 26.1q0.2 0.4 0.4 0.9 0.3 0.5 0.3 1.1 0.1 0.5 0.1 1 0 0.5-0.1 1.1-0.1 0.5-0.3 1-0.2 0.4-0.5 0.9-0.3 0.4-0.6 0.8l-3.4 3.3c-1.2 1.3-2.6 2.2-4.2 2.9-1.6 0.6-3.3 1-5 1-1.7 0-3.4-0.4-5-1-1.6-0.7-3-1.6-4.2-2.9-2-2-4.1-4.1-6.3-6.4-2.3-2.3-4.5-4.5-6.4-6.4-1.2-1.3-2.2-2.7-2.8-4.3-0.7-1.6-1-3.3-1-5 0-1.7 0.3-3.4 1-4.9 0.6-1.6 1.6-3.1 2.8-4.3l3.4-3.3q0.3-0.4 0.8-0.7 0.4-0.3 0.9-0.5 0.5-0.2 1-0.3 0.5-0.1 1-0.1 0.5 0 1.1 0.1 0.5 0.1 1 0.3 0.4 0.2 0.9 0.5 0.4 0.3 0.8 0.7l3.5 3.5q0.3 0.3 0.5 0.6 0.3 0.4 0.4 0.7 0.2 0.4 0.2 0.8 0.1 0.4 0.1 0.8 0 0.4-0.1 0.7 0 0.4-0.2 0.8-0.1 0.4-0.4 0.7-0.2 0.3-0.5 0.6l-1.2 1.2q-0.6 0.7-1 1.5-0.3 0.8-0.3 1.7 0 0.9 0.3 1.7 0.4 0.9 1 1.5c1 1 1.6 1.7 2.2 2.3 0.7 0.7 1.3 1.3 2.2 2.3q0.7 0.6 1.5 1 0.8 0.3 1.7 0.3 0.9 0 1.7-0.3 0.9-0.4 1.5-1l1.3-1.3q0.5-0.5 1.3-0.8 0.7-0.3 1.5-0.3 0.8 0 1.5 0.3 0.8 0.3 1.3 0.8l3.6 3.6q0.4 0.4 0.7 0.8zm-2.6 4.8q0.2-0.2 0.4-0.4 0.1-0.2 0.2-0.5 0.1-0.2 0.2-0.5 0.1-0.2 0.1-0.5 0-0.3-0.1-0.5 0-0.3-0.1-0.5-0.1-0.3-0.3-0.5-0.1-0.2-0.3-0.4l-3.6-3.5q-0.2-0.2-0.4-0.3-0.3-0.1-0.5-0.1-0.3 0-0.5 0.1-0.3 0.1-0.5 0.3l-1.2 1.2q-1 1-2.3 1.6-1.4 0.5-2.8 0.5-1.4 0-2.7-0.5-1.3-0.6-2.4-1.6c-1-1-1.5-1.7-2.2-2.3-0.7-0.6-1.3-1.3-2.3-2.2q-1-1-1.6-2.4-0.5-1.3-0.5-2.7 0-1.4 0.5-2.7 0.6-1.4 1.6-2.4l1.2-1.2q0.2-0.2 0.3-0.5 0.1-0.1 0.1-0.3 0-0.2 0-0.4 0-0.2-0.1-0.4-0.1-0.2-0.3-0.3l-3.5-3.6q-0.2-0.2-0.4-0.3-0.2-0.2-0.5-0.3-0.2-0.1-0.5-0.1-0.2-0.1-0.5-0.1-0.3 0-0.5 0.1-0.3 0-0.5 0.1-0.3 0.1-0.5 0.3-0.2 0.1-0.4 0.3l-0.4 0.3 3.8 3.8c0.3 0.3 0.4 0.6 0.4 1 0 0.3-0.2 0.7-0.4 0.9-0.3 0.3-0.6 0.4-1 0.4-0.3 0-0.7-0.2-0.9-0.4l-3.6-3.7-1.1 1.1c-1 1-1.7 2.1-2.3 3.4-0.5 1.2-0.8 2.6-0.8 4 0 1.3 0.3 2.7 0.8 3.9 0.6 1.3 1.3 2.4 2.3 3.4 1.9 1.9 4.2 4.2 6.4 6.4q0.7 0.8 1.5 1.6 0.8 0.8 1.6 1.6 0.8 0.8 1.6 1.6 0.7 0.8 1.5 1.6c1 1 2.1 1.7 3.4 2.3 1.2 0.5 2.6 0.7 3.9 0.7 1.4 0 2.8-0.2 4-0.7 1.3-0.6 2.4-1.3 3.4-2.3l1.1-1.1-3.7-3.7c-0.3-0.2-0.4-0.6-0.5-1 0-0.3 0.2-0.7 0.4-1 0.3-0.2 0.7-0.4 1-0.4 0.4 0.1 0.8 0.2 1 0.5l3.6 3.6 0.4-0.3q0 0 0 0z"/>
		</g>
	</g>
</svg>