<svg width="40" height="40" fill="none" xmlns="http://www.w3.org/2000/svg"><path d="M32.955 11.682L20 23.096 7.045 11.682A1.245 1.245 0 105.4 13.549l13.779 12.14a1.242 1.242 0 001.645 0L34.6 13.549a1.245 1.245 0 00-1.645-1.867z" fill="#1F4B3F"/><path d="M36.267 6.393H3.733A3.738 3.738 0 000 10.127v19.746a3.738 3.738 0 003.733 3.734h32.533A3.738 3.738 0 0040 29.873V10.127a3.738 3.738 0 00-3.733-3.734zm1.244 23.48c0 .686-.558 1.245-1.245 1.245H3.733a1.246 1.246 0 01-1.244-1.245V10.127c0-.686.558-1.245 1.244-1.245h32.533c.687 0 1.245.559 1.245 1.245v19.746z" fill="#1F4B3F"/></svg>