<svg width="40" height="40" fill="none" xmlns="http://www.w3.org/2000/svg"><path d="M20 0C12.254 0 5.951 6.302 5.951 14.049c0 9.68 12.614 24.888 13.15 25.531.468.56 1.33.56 1.797 0 .537-.643 13.15-15.852 13.15-25.531C34.049 6.302 27.748 0 20 0zm0 36.96C17.117 33.297 8.293 21.476 8.293 14.05 8.293 7.593 13.545 2.34 20 2.34c6.456 0 11.707 5.252 11.707 11.708 0 7.427-8.824 19.248-11.707 22.911z" fill="#1F4B3F"/><path d="M28.195 12.878h-1.268a7.042 7.042 0 00-5.756-5.755v-1.27a1.17 1.17 0 00-2.342 0v1.27a7.042 7.042 0 00-5.755 5.755h-1.269a1.17 1.17 0 000 2.342h1.269a7.042 7.042 0 005.755 5.755v1.27a1.17 1.17 0 002.342 0v-1.27a7.042 7.042 0 005.756-5.755h1.268a1.17 1.17 0 000-2.342zM20 18.732a4.688 4.688 0 01-4.683-4.683c0-2.582 2.101-4.683 4.683-4.683s4.683 2.1 4.683 4.683c0 2.582-2.1 4.683-4.683 4.683z" fill="#1F4B3F"/></svg>